Coordinates
version=1
nRows=13
nColumns=63
inDegrees=yes

Units are S.I. units (second, meters, Newtons, ...)
If the header above contains a line with 'inDegrees', this indicates whether rotational values are in degrees (yes) or radians (no).

endheader
time	pelvis_tilt	pelvis_list	pelvis_rotation	pelvis_tx	pelvis_ty	pelvis_tz	hip_flexion_r	hip_adduction_r	hip_rotation_r	knee_angle_r	knee_angle_r_beta	ankle_angle_r	subtalar_angle_r	mtp_angle_r	hip_flexion_l	hip_adduction_l	hip_rotation_l	knee_angle_l	knee_angle_l_beta	ankle_angle_l	subtalar_angle_l	mtp_angle_l	L5_S1_Flex_Ext	L5_S1_Lat_Bending	L5_S1_axial_rotation	L4_L5_Flex_Ext	L4_L5_Lat_Bending	L4_L5_axial_rotation	L3_L4_Flex_Ext	L3_L4_Lat_Bending	L3_L4_axial_rotation	L2_L3_Flex_Ext	L2_L3_Lat_Bending	L2_L3_axial_rotation	L1_L2_Flex_Ext	L1_L2_Lat_Bending	L1_L2_axial_rotation	L1_T12_Flex_Ext	L1_T12_Lat_Bending	L1_T12_axial_rotation	Abs_r3	Abs_r2	Abs_r1	Abs_t1	Abs_t2	neck_flexion	neck_bending	neck_rotation	arm_flex_r	arm_add_r	arm_rot_r	elbow_flex_r	pro_sup_r	wrist_flex_r	wrist_dev_r	arm_flex_l	arm_add_l	arm_rot_l	elbow_flex_l	pro_sup_l	wrist_flex_l	wrist_dev_l
0.000000	-4.283026	-2.628586	91.059739	0.288287	0.856329	0.574499	-7.140845	-3.294141	6.131821	6.453112	0.112628	20.440303	-17.959919	0.000000	-9.005144	0.889644	7.383344	0.516612	0.009017	24.750445	1.137818	0.000000	0.126827	-0.151868	-0.906678	0.235531	-0.201984	-0.963345	0.208364	-0.369251	-0.963345	0.144951	-0.369251	-0.793343	0.117772	-0.309688	-0.736676	0.072469	-0.235243	-0.680008	0.905914	-1.717957	-5.042671	0.000000	0.000000	12.198183	1.699984	8.779308	39.424715	-98.929447	-17.852961	2.528278	81.249100	-10.612304	21.124784	3.330269	-103.502707	182.169537	28.187983	17.404368	-47.185877	9.360843
0.020000	-4.662334	-2.507911	90.833586	0.288151	0.856195	0.574592	-6.993286	-3.790951	5.865109	7.032047	0.122732	21.150235	-17.184189	0.000000	-9.203507	1.353737	8.384488	0.464420	0.008106	24.393067	-0.474144	0.000000	0.123756	-0.207946	-0.877268	0.229828	-0.276568	-0.932097	0.203319	-0.505600	-0.932097	0.141441	-0.505600	-0.767610	0.114920	-0.424043	-0.712780	0.070714	-0.322108	-0.657951	0.883980	-2.352326	-4.879102	0.000000	0.000000	11.909178	2.694022	7.964299	41.686854	-98.584216	-17.701912	3.235200	77.948406	-11.807128	21.688379	-6.804901	-105.233412	165.197520	30.788805	10.888592	-39.974862	7.181902
0.040000	-4.958174	-2.426156	90.638072	0.288031	0.856065	0.574685	-6.871022	-4.188087	5.627029	7.456337	0.130138	21.763484	-16.475766	0.000000	-9.343416	1.718998	9.152201	0.426652	0.007446	24.130988	-1.719192	0.000000	0.121112	-0.251367	-0.851520	0.224917	-0.334318	-0.904740	0.198975	-0.611173	-0.904740	0.138419	-0.611173	-0.745080	0.112465	-0.512587	-0.691860	0.069203	-0.389367	-0.638640	0.865092	-2.843510	-4.735900	0.000000	0.000000	11.743058	3.489689	7.326465	43.314997	-98.314168	-17.931867	3.833046	75.588205	-12.700788	22.160126	-13.764127	-106.492689	153.369851	32.486196	6.396947	-33.738202	5.389083
0.060000	-5.178613	-2.378947	90.470602	0.287923	0.855941	0.574779	-6.772847	-4.494858	5.419807	7.740727	0.135101	22.284040	-15.835994	0.000000	-9.430857	1.994986	9.703364	0.401851	0.007014	23.956369	-2.626215	0.000000	0.118875	-0.283411	-0.828983	0.220762	-0.376937	-0.880795	0.195300	-0.689086	-0.880795	0.135862	-0.689086	-0.725360	0.110387	-0.577932	-0.673549	0.067925	-0.439004	-0.621737	0.849111	-3.206003	-4.610555	0.000000	0.000000	11.684601	4.106640	6.844673	44.380600	-98.111473	-18.493417	4.328405	74.061036	-13.328113	22.545356	-17.858388	-107.330517	146.198748	33.374198	3.708885	-28.408207	3.945223
0.080000	-5.331719	-2.361909	90.328586	0.287825	0.855824	0.574873	-6.697554	-4.720572	5.245665	7.899963	0.137880	22.715892	-15.266217	0.000000	-9.471816	2.191261	10.054860	0.388562	0.006782	23.861375	-3.224102	0.000000	0.117025	-0.305361	-0.809206	0.217328	-0.406130	-0.859781	0.192261	-0.742455	-0.859781	0.133748	-0.742455	-0.708055	0.108670	-0.622692	-0.657480	0.066868	-0.473004	-0.606905	0.835900	-3.454305	-4.500561	0.000000	0.000000	11.718581	4.564537	6.497790	44.955121	-97.968300	-19.337151	4.727866	73.259438	-13.723931	22.849397	-19.398661	-107.796880	143.196425	33.546856	2.603854	-23.917188	2.813158
0.100000	-5.425560	-2.370669	90.209429	0.287735	0.855714	0.574968	-6.643939	-4.874538	5.106827	7.948792	0.138733	23.063031	-14.767780	0.000000	-9.472280	2.317382	10.223570	0.385327	0.006725	23.838168	-3.541740	0.000000	0.115544	-0.318498	-0.791738	0.214576	-0.423602	-0.841222	0.189827	-0.774395	-0.841222	0.132055	-0.774395	-0.692771	0.107294	-0.649481	-0.643287	0.066022	-0.493353	-0.593804	0.825318	-3.602910	-4.403410	0.000000	0.000000	11.829774	4.883036	6.264684	45.110015	-97.876819	-20.413660	5.038019	73.075948	-13.923071	23.077577	-18.695924	-107.941758	143.875097	33.098212	2.861305	-20.197455	1.955725
0.120000	-5.468204	-2.400851	90.110539	0.287651	0.855613	0.575067	-6.610794	-4.966066	5.005518	7.901960	0.137915	23.329447	-14.342026	0.000000	-9.438233	2.382908	10.226375	0.390692	0.006819	23.878912	-3.608020	0.000000	0.114411	-0.324103	-0.776128	0.212473	-0.431057	-0.824636	0.187966	-0.788024	-0.824636	0.130760	-0.788024	-0.679112	0.106242	-0.660911	-0.630604	0.065375	-0.502036	-0.582096	0.817227	-3.666318	-4.316593	0.000000	0.000000	12.002957	5.081797	6.124223	44.916740	-97.829199	-21.673532	5.265453	73.403106	-13.960363	23.235227	-16.061156	-107.815135	147.746980	32.122311	4.260687	-17.181317	1.335762
0.140000	-5.467718	-2.448081	90.029322	0.287571	0.855521	0.575168	-6.596915	-5.004464	4.943961	7.774212	0.135686	23.519130	-13.990300	0.000000	-9.375662	2.397398	10.080158	0.403201	0.007037	23.975769	-3.451829	0.000000	0.113608	-0.323458	-0.761926	0.210981	-0.430199	-0.809546	0.186646	-0.786456	-0.809546	0.129842	-0.786456	-0.666685	0.105496	-0.659596	-0.619065	0.064915	-0.501037	-0.571444	0.811488	-3.659023	-4.237602	0.000000	0.000000	12.222906	5.180479	6.055275	44.446752	-97.817612	-23.067360	5.416758	74.133450	-13.870636	23.327674	-11.805334	-107.466991	154.324288	30.713197	6.581451	-14.801084	0.916105
0.160000	-5.432171	-2.507985	89.963186	0.287491	0.855441	0.575274	-6.601096	-4.999041	4.924380	7.580295	0.132301	23.636070	-13.713947	0.000000	-9.290553	2.370412	9.801800	0.421396	0.007355	24.120903	-3.102056	0.000000	0.113114	-0.317845	-0.748680	0.210064	-0.422734	-0.795472	0.185835	-0.772808	-0.795472	0.129278	-0.772808	-0.655095	0.105038	-0.648149	-0.608302	0.064633	-0.492342	-0.561510	0.807963	-3.595525	-4.163931	0.000000	0.000000	12.474396	5.198740	6.036707	43.771508	-97.834226	-24.545731	5.498522	75.159519	-13.688719	23.360247	-6.239437	-106.947309	163.119237	28.964913	9.603045	-12.989066	0.659592
0.180000	-5.369630	-2.576187	89.909538	0.287411	0.855372	0.575384	-6.622130	-4.959106	4.948998	7.334955	0.128019	23.684257	-13.514310	0.000000	-9.188891	2.311508	9.408184	0.443824	0.007746	24.306477	-2.587589	0.000000	0.112911	-0.308545	-0.735939	0.209687	-0.410364	-0.781935	0.185501	-0.750195	-0.781935	0.129046	-0.750195	-0.643946	0.104849	-0.629184	-0.597950	0.064517	-0.477936	-0.551954	0.806511	-3.490319	-4.093071	0.000000	0.000000	12.742204	5.156238	6.047387	42.962464	-97.871212	-26.059237	5.517336	76.373852	-13.449440	23.338277	0.325557	-106.306070	173.644042	26.971502	13.104920	-11.677574	0.529058
0.200000	-5.288163	-2.648315	89.865785	0.287328	0.855316	0.575500	-6.658812	-4.893969	5.020040	7.052939	0.123097	23.667681	-13.392734	0.000000	-9.076663	2.230246	8.916190	0.469026	0.008186	24.524654	-1.937318	0.000000	0.112979	-0.296839	-0.723253	0.209813	-0.394796	-0.768456	0.185613	-0.721734	-0.768456	0.129123	-0.721734	-0.632846	0.104912	-0.605314	-0.587643	0.064556	-0.459804	-0.542439	0.806995	-3.357902	-4.022514	0.000000	0.000000	13.011104	5.072633	6.066183	42.091078	-97.920738	-27.558468	5.479788	77.668987	-13.187628	23.267091	7.578671	-105.593256	185.410918	24.827009	16.866526	-10.798916	0.487342
0.220000	-5.210154	-2.698968	89.832779	0.287205	0.855300	0.575635	-6.730846	-4.829338	5.168316	6.749607	0.117803	23.583839	-13.374169	0.000000	-8.978300	2.153983	8.359962	0.494720	0.008634	24.771274	-1.234676	0.000000	0.113226	-0.288337	-0.703059	0.210272	-0.383489	-0.747001	0.186019	-0.701063	-0.747001	0.129406	-0.701063	-0.615177	0.105142	-0.587977	-0.571236	0.064697	-0.446635	-0.527295	0.808764	-3.261730	-3.910205	0.000000	0.000000	13.174049	5.024690	5.909210	41.597532	-97.924806	-28.900269	5.392165	78.356466	-13.082208	23.084682	13.987311	-105.067831	196.481253	22.996480	19.495127	-9.820899	0.142127
0.240000	-5.119865	-2.741753	89.789020	0.287060	0.855305	0.575789	-6.806379	-4.749106	5.415855	6.477319	0.113051	23.391928	-13.512270	0.000000	-8.885995	2.067895	7.671843	0.517619	0.009034	25.040527	-0.370805	0.000000	0.113674	-0.278548	-0.683769	0.211105	-0.370469	-0.726505	0.186756	-0.677262	-0.726505	0.129918	-0.677262	-0.598298	0.105558	-0.568015	-0.555562	0.064954	-0.431471	-0.512827	0.811965	-3.150991	-3.802919	0.000000	0.000000	13.304821	5.003188	5.694583	40.975935	-97.949215	-30.117542	5.215679	79.034361	-12.959905	22.933447	20.813901	-104.522309	208.238422	21.137249	22.096597	-9.542912	-0.001343
